<svg viewBox="0 0 120 160" xmlns="http://www.w3.org/2000/svg" preserveAspectRatio="xMidYMid meet">
  <!-- page -->
  <rect width="120" height="160" fill="#ffffff" stroke="#d9d3c5" stroke-width="1"/>
  <!-- top-left photo cell -->
  <rect x="0" y="0" width="18" height="24" fill="#2a2722"/>
  <circle cx="9" cy="12" r="4" fill="#f3eee5" opacity="0.4"/>
  <!-- top-right header -->
  <rect x="18" y="0" width="102" height="24" fill="#f3eee5"/>
  <rect x="22" y="8" width="46" height="3" fill="#1a1d24"/>
  <rect x="22" y="14" width="58" height="1.4" fill="#8a8580"/>
  <rect x="22" y="17" width="40" height="1.4" fill="#8a8580"/>
  <!-- bottom-left sidebar -->
  <rect x="0" y="24" width="18" height="136" fill="#ece6da"/>
  <rect x="3" y="30" width="12" height="2" fill="#7a4f3a"/>
  <rect x="3" y="35" width="11" height="1" fill="#5a5550"/>
  <rect x="3" y="38" width="10" height="1" fill="#5a5550"/>
  <rect x="3" y="41" width="11" height="1" fill="#5a5550"/>
  <rect x="3" y="44" width="9" height="1" fill="#5a5550"/>
  <rect x="3" y="52" width="12" height="2" fill="#7a4f3a"/>
  <rect x="3" y="57" width="10" height="1" fill="#5a5550"/>
  <rect x="3" y="60" width="11" height="1" fill="#5a5550"/>
  <rect x="3" y="63" width="9" height="1" fill="#5a5550"/>
  <!-- bottom-right main -->
  <rect x="22" y="32" width="28" height="2.5" fill="#1a1d24"/>
  <rect x="22" y="36" width="56" height="0.8" fill="#7a4f3a"/>
  <rect x="22" y="40" width="90" height="1" fill="#8a8580"/>
  <rect x="22" y="43" width="86" height="1" fill="#8a8580"/>
  <rect x="22" y="46" width="92" height="1" fill="#8a8580"/>
  <rect x="22" y="49" width="74" height="1" fill="#8a8580"/>
  <rect x="22" y="58" width="28" height="2.5" fill="#1a1d24"/>
  <rect x="22" y="62" width="56" height="0.8" fill="#7a4f3a"/>
  <rect x="22" y="66" width="92" height="1" fill="#8a8580"/>
  <rect x="22" y="69" width="86" height="1" fill="#8a8580"/>
  <rect x="22" y="72" width="78" height="1" fill="#8a8580"/>
  <rect x="22" y="80" width="28" height="2.5" fill="#1a1d24"/>
  <rect x="22" y="84" width="56" height="0.8" fill="#7a4f3a"/>
  <rect x="22" y="88" width="90" height="1" fill="#8a8580"/>
  <rect x="22" y="91" width="78" height="1" fill="#8a8580"/>
</svg>
