<svg viewBox="0 0 120 160" xmlns="http://www.w3.org/2000/svg" preserveAspectRatio="xMidYMid meet">
  <rect width="120" height="160" fill="#ffffff" stroke="#d9d3c5" stroke-width="1"/>
  <!-- full-height left sidebar -->
  <rect x="0" y="0" width="38" height="160" fill="#ece6da"/>
  <!-- circular photo -->
  <circle cx="19" cy="22" r="11" fill="#ffffff" stroke="#7a4f3a" stroke-width="1.4"/>
  <circle cx="19" cy="22" r="9" fill="#c9a98a" opacity="0.6"/>
  <!-- contact block -->
  <rect x="5" y="40" width="11" height="1.4" fill="#7a4f3a"/>
  <rect x="5" y="43" width="28" height="1" fill="#5a5550"/>
  <rect x="5" y="48" width="11" height="1.4" fill="#7a4f3a"/>
  <rect x="5" y="51" width="22" height="1" fill="#5a5550"/>
  <rect x="5" y="56" width="11" height="1.4" fill="#7a4f3a"/>
  <rect x="5" y="59" width="24" height="1" fill="#5a5550"/>
  <!-- divider -->
  <rect x="5" y="66" width="28" height="0.5" fill="#1a1d24" opacity="0.15"/>
  <!-- side section 1 -->
  <rect x="5" y="74" width="20" height="1.6" fill="#7a4f3a"/>
  <rect x="5" y="80" width="22" height="1" fill="#5a5550"/>
  <rect x="5" y="83" width="20" height="1" fill="#5a5550"/>
  <rect x="5" y="86" width="24" height="1" fill="#5a5550"/>
  <!-- side section 2 -->
  <rect x="5" y="96" width="20" height="1.6" fill="#7a4f3a"/>
  <rect x="5" y="102" width="22" height="1" fill="#5a5550"/>
  <rect x="5" y="105" width="18" height="1" fill="#5a5550"/>
  <!-- main column -->
  <!-- name -->
  <rect x="46" y="14" width="50" height="3.4" fill="#1a1d24"/>
  <rect x="46" y="22" width="36" height="1.4" fill="#8a8580"/>
  <!-- section 1 with bullet -->
  <circle cx="48" cy="38" r="1.6" fill="#7a4f3a"/>
  <rect x="53" y="36.5" width="28" height="2.2" fill="#1a1d24"/>
  <rect x="46" y="44" width="68" height="1" fill="#8a8580"/>
  <rect x="46" y="47" width="64" height="1" fill="#8a8580"/>
  <rect x="46" y="50" width="68" height="1" fill="#8a8580"/>
  <rect x="46" y="53" width="56" height="1" fill="#8a8580"/>
  <!-- section 2 -->
  <circle cx="48" cy="68" r="1.6" fill="#7a4f3a"/>
  <rect x="53" y="66.5" width="28" height="2.2" fill="#1a1d24"/>
  <rect x="46" y="74" width="68" height="1" fill="#8a8580"/>
  <rect x="46" y="77" width="60" height="1" fill="#8a8580"/>
  <rect x="46" y="80" width="68" height="1" fill="#8a8580"/>
  <!-- section 3 -->
  <circle cx="48" cy="94" r="1.6" fill="#7a4f3a"/>
  <rect x="53" y="92.5" width="28" height="2.2" fill="#1a1d24"/>
  <rect x="46" y="100" width="68" height="1" fill="#8a8580"/>
  <rect x="46" y="103" width="56" height="1" fill="#8a8580"/>
</svg>
